<svg width="99" height="60" viewBox="0 0 99 60" fill="none" xmlns="http://www.w3.org/2000/svg">
<path d="M9.24075 43.768V45.96H6.26475V55H3.52875V45.96H0.552751V43.768H9.24075ZM16.5419 55L14.2059 50.76H13.5499V55H10.8139V43.768H15.4059C16.2912 43.768 17.0432 43.9227 17.6619 44.232C18.2912 44.5413 18.7605 44.968 19.0699 45.512C19.3792 46.0453 19.5339 46.6427 19.5339 47.304C19.5339 48.0507 19.3205 48.7173 18.8939 49.304C18.4779 49.8907 17.8592 50.3067 17.0379 50.552L19.6299 55H16.5419ZM13.5499 48.824H15.2459C15.7472 48.824 16.1205 48.7013 16.3659 48.456C16.6219 48.2107 16.7499 47.864 16.7499 47.416C16.7499 46.9893 16.6219 46.6533 16.3659 46.408C16.1205 46.1627 15.7472 46.04 15.2459 46.04H13.5499V48.824ZM28.4434 53.016H24.2514L23.5794 55H20.7154L24.7794 43.768H27.9474L32.0114 55H29.1154L28.4434 53.016ZM27.7394 50.904L26.3474 46.792L24.9714 50.904H27.7394ZM43.9922 43.768L40.0082 55H36.5842L32.6002 43.768H35.5122L38.2962 52.248L41.0962 43.768H43.9922ZM48.0718 45.96V48.232H51.7358V50.344H48.0718V52.808H52.2158V55H45.3358V43.768H52.2158V45.96H48.0718Z" fill="white"/>
<path d="M56.5724 53.816H60.4764V55H55.1164V43.848H56.5724V53.816ZM67.2786 55.112C66.244 55.112 65.3 54.872 64.4466 54.392C63.5933 53.9013 62.916 53.224 62.4146 52.36C61.924 51.4853 61.6786 50.504 61.6786 49.416C61.6786 48.328 61.924 47.352 62.4146 46.488C62.916 45.6133 63.5933 44.936 64.4466 44.456C65.3 43.9653 66.244 43.72 67.2786 43.72C68.324 43.72 69.2733 43.9653 70.1266 44.456C70.98 44.936 71.652 45.608 72.1426 46.472C72.6333 47.336 72.8786 48.3173 72.8786 49.416C72.8786 50.5147 72.6333 51.496 72.1426 52.36C71.652 53.224 70.98 53.9013 70.1266 54.392C69.2733 54.872 68.324 55.112 67.2786 55.112ZM67.2786 53.848C68.0573 53.848 68.756 53.6667 69.3746 53.304C70.004 52.9413 70.4946 52.424 70.8466 51.752C71.2093 51.08 71.3906 50.3013 71.3906 49.416C71.3906 48.52 71.2093 47.7413 70.8466 47.08C70.4946 46.408 70.0093 45.8907 69.3906 45.528C68.772 45.1653 68.068 44.984 67.2786 44.984C66.4893 44.984 65.7853 45.1653 65.1666 45.528C64.548 45.8907 64.0573 46.408 63.6946 47.08C63.3426 47.7413 63.1666 48.52 63.1666 49.416C63.1666 50.3013 63.3426 51.08 63.6946 51.752C64.0573 52.424 64.548 52.9413 65.1666 53.304C65.796 53.6667 66.5 53.848 67.2786 53.848ZM83.4488 47.08C83.1394 46.4293 82.6914 45.928 82.1048 45.576C81.5181 45.2133 80.8354 45.032 80.0568 45.032C79.2781 45.032 78.5741 45.2133 77.9448 45.576C77.3261 45.928 76.8354 46.44 76.4728 47.112C76.1208 47.7733 75.9448 48.5413 75.9448 49.416C75.9448 50.2907 76.1208 51.0587 76.4728 51.72C76.8354 52.3813 77.3261 52.8933 77.9448 53.256C78.5741 53.608 79.2781 53.784 80.0568 53.784C81.1448 53.784 82.0408 53.4587 82.7448 52.808C83.4488 52.1573 83.8594 51.2773 83.9768 50.168H79.5288V48.984H85.5288V50.104C85.4434 51.0213 85.1554 51.864 84.6648 52.632C84.1741 53.3893 83.5288 53.992 82.7288 54.44C81.9288 54.8773 81.0381 55.096 80.0568 55.096C79.0221 55.096 78.0781 54.856 77.2248 54.376C76.3714 53.8853 75.6941 53.208 75.1928 52.344C74.7021 51.48 74.4568 50.504 74.4568 49.416C74.4568 48.328 74.7021 47.352 75.1928 46.488C75.6941 45.6133 76.3714 44.936 77.2248 44.456C78.0781 43.9653 79.0221 43.72 80.0568 43.72C81.2408 43.72 82.2861 44.0133 83.1928 44.6C84.1101 45.1867 84.7768 46.0133 85.1928 47.08H83.4488ZM92.7099 55.112C91.6752 55.112 90.7312 54.872 89.8779 54.392C89.0245 53.9013 88.3472 53.224 87.8459 52.36C87.3552 51.4853 87.1099 50.504 87.1099 49.416C87.1099 48.328 87.3552 47.352 87.8459 46.488C88.3472 45.6133 89.0245 44.936 89.8779 44.456C90.7312 43.9653 91.6752 43.72 92.7099 43.72C93.7552 43.72 94.7045 43.9653 95.5579 44.456C96.4112 44.936 97.0832 45.608 97.5739 46.472C98.0645 47.336 98.3099 48.3173 98.3099 49.416C98.3099 50.5147 98.0645 51.496 97.5739 52.36C97.0832 53.224 96.4112 53.9013 95.5579 54.392C94.7045 54.872 93.7552 55.112 92.7099 55.112ZM92.7099 53.848C93.4885 53.848 94.1872 53.6667 94.8059 53.304C95.4352 52.9413 95.9259 52.424 96.2779 51.752C96.6405 51.08 96.8219 50.3013 96.8219 49.416C96.8219 48.52 96.6405 47.7413 96.2779 47.08C95.9259 46.408 95.4405 45.8907 94.8219 45.528C94.2032 45.1653 93.4992 44.984 92.7099 44.984C91.9205 44.984 91.2165 45.1653 90.5979 45.528C89.9792 45.8907 89.4885 46.408 89.1259 47.08C88.7739 47.7413 88.5979 48.52 88.5979 49.416C88.5979 50.3013 88.7739 51.08 89.1259 51.752C89.4885 52.424 89.9792 52.9413 90.5979 53.304C91.2272 53.6667 91.9312 53.848 92.7099 53.848Z" fill="#2977b7"/>
<g clip-path="url(#clip0_113_641)">
<path d="M34.0569 28.6883H36.3488C36.5956 30.2914 37.9803 31.5242 39.6514 31.5242C41.3206 31.5242 42.7042 30.2939 42.9531 28.6883H57.1587C57.4055 30.2914 58.7903 31.5242 60.4613 31.5242C62.1305 31.5242 63.5142 30.2939 63.763 28.6883H64.9393C65.7908 28.6883 66.4834 27.9957 66.4834 27.1442L66.4829 20.0358C66.5794 17.5945 64.9986 15.9232 63.6576 14.9521C62.7257 14.271 61.5952 13.9111 60.3889 13.9111H46.4818C45.8514 13.9111 45.2417 14.2102 44.8482 14.7149L40.6395 20.2047C40.5415 20.3311 40.3877 20.4065 40.2279 20.4065H35.0864C33.5984 20.4065 32.5148 21.701 32.5148 22.8403C32.5146 23.262 32.5127 27.4007 32.5128 27.1442C32.5128 27.9957 33.2055 28.6883 34.0569 28.6883ZM39.6514 30.4948C38.3741 30.4948 37.3352 29.4559 37.3352 28.1754C37.3397 26.8974 38.3787 25.8574 39.6514 25.8574C40.9181 25.8574 41.9635 26.8907 41.9675 28.1786C41.9675 29.4559 40.9286 30.4948 39.6514 30.4948ZM60.4613 30.4948C59.184 30.4948 58.1451 29.4559 58.1451 28.1754C58.1491 26.8972 59.1881 25.8574 60.4613 25.8574C61.728 25.8574 62.7734 26.8907 62.7774 28.1786C62.7774 29.4559 61.7385 30.4948 60.4613 30.4948ZM35.0864 21.4359H40.2279C40.7034 21.4359 41.1613 21.2113 41.4548 20.833L45.6625 15.3447C45.86 15.0916 46.1661 14.9405 46.4818 14.9405H60.3889C61.3756 14.9405 62.2959 15.2321 63.0524 15.7847C64.1914 16.6096 65.5329 18.0094 65.454 20.0155V27.1442C65.454 27.4279 65.2233 27.6589 64.9393 27.6589H63.7661C63.5135 26.0581 62.1087 24.828 60.4612 24.828C58.8243 24.828 57.4116 26.0485 57.1564 27.6589H42.9562C42.7002 26.0366 41.2771 24.828 39.6514 24.828C38.0052 24.828 36.6001 26.0587 36.347 27.6589H34.0569C33.7729 27.6589 33.5422 27.4279 33.5422 27.1442V26.0223H35.1879C35.7554 26.0223 36.2173 25.5606 36.2173 24.9929V23.3553C36.2173 22.7875 35.7554 22.3256 35.1879 22.3256H33.6931C33.9403 21.8017 34.4696 21.4359 35.0864 21.4359ZM33.5442 23.355L35.1879 23.3553L35.1884 24.9929H33.5442V23.355Z" fill="white"/>
<path d="M59.6927 22.296H63.3937C63.9612 22.296 64.4231 21.8343 64.4231 21.2666L64.4226 19.9539C64.4714 18.7219 63.8038 17.598 62.4392 16.6136C61.8656 16.1987 61.1368 15.9702 60.3874 15.9702H59.6927C59.1252 15.9702 58.6633 16.4319 58.6633 16.9996V21.2666C58.6633 21.8343 59.1252 22.296 59.6927 22.296ZM59.6927 16.9996H60.3874C60.9222 16.9996 61.4364 17.1587 61.8365 17.448C62.9041 18.2183 63.4284 19.0476 63.3937 19.9335L63.3942 21.2666H59.6927V16.9996ZM51.9385 22.296H56.5708C57.1383 22.296 57.6002 21.8343 57.6002 21.2666V16.9996C57.6002 16.4319 57.1383 15.9702 56.5708 15.9702H51.9385C51.3705 15.9702 50.9086 16.4319 50.9086 16.9996V21.2666C50.9086 21.8343 51.3705 22.296 51.9385 22.296ZM51.9385 16.9996H56.5708L56.5713 21.2666H51.938L51.9385 16.9996ZM43.7137 22.296H48.8166C49.384 22.296 49.846 21.8343 49.846 21.2666V16.9996C49.846 16.4319 49.384 15.9702 48.8166 15.9702H46.9859C46.6683 15.9702 46.3627 16.1208 46.1686 16.3731L42.8974 20.64C42.6567 20.9532 42.616 21.3678 42.7904 21.7219C42.9653 22.0761 43.3187 22.296 43.7137 22.296ZM46.9859 16.9996H48.8166L48.8171 21.2666H43.7142L46.9859 16.9996ZM39.6514 26.7265C38.8547 26.7265 38.2053 27.3757 38.2028 28.1771C38.2028 28.9761 38.8527 29.626 39.6514 29.626C40.4506 29.626 41.1005 28.9761 41.1005 28.1739C41.098 27.3757 40.4481 26.7265 39.6514 26.7265ZM39.6514 28.5966C39.4202 28.5966 39.2322 28.4084 39.2322 28.1769C39.2327 27.9447 39.4207 27.7559 39.6514 27.7559C39.8821 27.7559 40.0706 27.9447 40.0711 28.1771C40.0711 28.4084 39.8826 28.5966 39.6514 28.5966ZM60.4613 26.7265C59.6651 26.7265 59.0152 27.3757 59.0122 28.1771C59.0122 28.9761 59.6621 29.626 60.4613 29.626C61.26 29.626 61.9099 28.9761 61.9099 28.1739C61.9074 27.3757 61.2575 26.7265 60.4613 26.7265ZM60.4613 28.5966C60.2301 28.5966 60.0416 28.4084 60.0416 28.1774C60.0426 27.9449 60.2306 27.7559 60.4613 27.7559C60.692 27.7559 60.88 27.9447 60.8805 28.1771C60.8805 28.4084 60.6925 28.5966 60.4613 28.5966Z" fill="white"/>
<path d="M34.8453 33.1641H33.0299V34.1935H34.8453V33.1641Z" fill="#2977b7"/>
<path d="M39.2923 33.1641H37.4764V34.1935H39.2923V33.1641Z" fill="#2977b7"/>
<path d="M43.7389 33.1641H41.923V34.1935H43.7389V33.1641Z" fill="#2977b7"/>
<path d="M48.1849 33.1641H46.369V34.1935H48.1849V33.1641Z" fill="#2977b7"/>
<path d="M52.6314 33.1641H50.8156V34.1935H52.6314V33.1641Z" fill="#2977b7"/>
<path d="M57.078 33.1641H55.2621V34.1935H57.078V33.1641Z" fill="#2977b7"/>
<path d="M61.524 33.1641H59.7086V34.1935H61.524V33.1641Z" fill="#2977b7"/>
<path d="M65.9712 33.1641H64.1553V34.1935H65.9712V33.1641Z" fill="#2977b7"/>
<path d="M51.3177 9.36577H52.5582C52.8427 9.36577 53.0729 9.13531 53.0729 8.85106C53.0729 8.0589 53.7213 7.41451 54.5185 7.41451C54.803 7.41451 55.0332 7.18405 55.0332 6.8998C55.0332 6.10789 55.6821 5.4635 56.4793 5.4635C56.7889 5.4635 57.088 5.56528 57.3448 5.75805C57.4157 5.81108 57.4987 5.84501 57.5861 5.85657C58.133 5.92945 58.6854 6.16243 58.6351 7.33786C58.6286 7.49267 58.6919 7.64246 58.8085 7.74525C58.9247 7.84804 59.0815 7.89303 59.2338 7.86739C59.3011 7.85633 59.3685 7.84527 59.4389 7.84527C60.1169 7.84527 60.6683 8.39315 60.6683 9.06644C60.6683 9.35069 60.8985 9.58115 61.183 9.58115H62.8458C63.1303 9.58115 63.3605 9.35069 63.3605 9.06644C63.3605 8.7822 63.1303 8.55174 62.8458 8.55174H61.6379C61.4193 7.62386 60.6226 6.91538 59.649 6.82541C59.5359 5.73141 58.9126 5.04304 57.8525 4.85631C57.4414 4.57961 56.9689 4.43409 56.4793 4.43409C55.2755 4.43409 54.2697 5.29412 54.049 6.42958C53.0759 6.61657 52.3038 7.3733 52.0978 8.33636H51.3177C51.0332 8.33636 50.803 8.56682 50.803 8.85106C50.803 9.13531 51.0332 9.36577 51.3177 9.36577ZM46.4757 9.32379C46.2571 8.39592 45.4604 7.68744 44.4867 7.59747C44.3737 6.50372 43.7504 5.8151 42.6903 5.62837C42.2791 5.35167 41.8067 5.20615 41.3171 5.20615C40.1133 5.20615 39.1075 6.06617 38.8868 7.20164C37.9132 7.38862 37.1411 8.14535 36.9351 9.10841H36.1555C35.871 9.10841 35.6407 9.33887 35.6407 9.62312C35.6407 9.90737 35.871 10.1378 36.1555 10.1378H37.3955C37.68 10.1378 37.9102 9.90737 37.9102 9.62312C37.9102 8.83096 38.5591 8.18657 39.3563 8.18657C39.6408 8.18657 39.871 7.95611 39.871 7.67186C39.871 6.87995 40.5199 6.23556 41.3171 6.23556C41.6267 6.23556 41.9258 6.33734 42.1826 6.53011C42.2535 6.58314 42.3364 6.61707 42.4239 6.62863C42.9708 6.70151 43.5232 6.93449 43.4729 8.10992C43.4664 8.26498 43.5302 8.41477 43.6463 8.51756C43.7629 8.6201 43.9198 8.66534 44.0721 8.63945C44.1389 8.62814 44.2068 8.61733 44.2766 8.61733C44.9547 8.61733 45.5061 9.16521 45.5061 9.8385C45.5061 10.1228 45.7363 10.3532 46.0208 10.3532H47.6831C47.9675 10.3532 48.1978 10.1228 48.1978 9.8385C48.1978 9.55426 47.9675 9.3238 47.6831 9.3238L46.4757 9.32379ZM48.7854 3.89475C48.7854 2.75953 49.7087 1.83593 50.8442 1.83593C51.1287 1.83593 51.3589 1.60547 51.3589 1.32122C51.3589 1.03698 51.1287 0.806519 50.8442 0.806519C49.7706 0.806519 48.8242 1.3577 48.2706 2.1913C47.7171 1.3577 46.7707 0.806519 45.6971 0.806519C45.4126 0.806519 45.1824 1.03698 45.1824 1.32122C45.1824 1.60547 45.4126 1.83593 45.6971 1.83593C46.8326 1.83593 47.7559 2.75953 47.7559 3.89475C47.7559 4.179 47.9862 4.40946 48.2706 4.40946C48.5551 4.40946 48.7854 4.179 48.7854 3.89475ZM49.2382 23.1899H47.6172C47.4041 23.1899 47.2312 23.3629 47.2312 23.576C47.2312 23.7891 47.4041 23.962 47.6172 23.962H49.2382C49.4514 23.962 49.6243 23.7891 49.6243 23.576C49.6243 23.3629 49.4514 23.1899 49.2382 23.1899ZM45.7117 23.1899H44.0912C43.8781 23.1899 43.7051 23.3629 43.7051 23.576C43.7051 23.7891 43.8781 23.962 44.0912 23.962H45.7117C45.9248 23.962 46.0977 23.7891 46.0977 23.576C46.0977 23.3629 45.9248 23.1899 45.7117 23.1899Z" fill="#2977b7"/>
</g>
<defs>
<clipPath id="clip0_113_641">
<rect width="35" height="35" fill="white" transform="translate(32)"/>
</clipPath>
</defs>
</svg>
